<?xml version="1.0" standalone="no"?>
<!DOCTYPE svg PUBLIC "-//W3C//DTD SVG 20010904//EN"
 "http://www.w3.org/TR/2001/REC-SVG-20010904/DTD/svg10.dtd">
<svg version="1.0" xmlns="http://www.w3.org/2000/svg"
 width="300.000000pt" height="300.000000pt" viewBox="0 0 300.000000 300.000000"
 preserveAspectRatio="xMidYMid meet">

<g transform="translate(0.000000,300.000000) scale(0.100000,-0.100000)"
fill="#000000" stroke="none">
<path d="M1366 2234 c-162 -39 -313 -172 -375 -332 -70 -177 -40 -349 106
-606 124 -220 365 -546 403 -546 51 0 324 387 449 636 77 155 94 216 94 329
-1 152 -58 282 -172 387 -136 127 -324 176 -505 132z m239 -288 c66 -30 120
-91 139 -157 20 -66 20 -82 0 -150 -20 -67 -97 -148 -160 -167 -100 -30 -187
-9 -261 63 -39 38 -55 63 -67 104 -20 68 -20 84 0 150 30 104 135 181 244 181
37 0 72 -8 105 -24z"/>
</g>
</svg>
