<?xml version="1.0" standalone="no"?>
<!DOCTYPE svg PUBLIC "-//W3C//DTD SVG 20010904//EN"
 "http://www.w3.org/TR/2001/REC-SVG-20010904/DTD/svg10.dtd">
<svg version="1.0" xmlns="http://www.w3.org/2000/svg"
 width="3040.000000pt" height="794.000000pt" viewBox="0 0 3040.000000 794.000000"
 preserveAspectRatio="xMidYMid meet">

<g transform="translate(0.000000,794.000000) scale(0.100000,-0.100000)"
fill="#000000" stroke="none">
<path d="M7958 7925 c-183 -45 -326 -186 -373 -370 -13 -53 -15 -454 -15
-3615 0 -2980 2 -3563 14 -3606 46 -172 187 -299 361 -324 44 -6 670 -10 1678
-10 l1607 0 0 295 0 295 -1535 0 -1535 0 0 3380 0 3380 2105 0 2105 0 2 -3493
3 -3493 39 -80 c76 -152 213 -252 376 -274 101 -13 4738 -13 4839 0 190 25
346 165 396 355 13 53 15 460 15 3667 l0 3608 -295 0 -295 0 0 -3525 0 -3525
-2247 2 -2248 3 -5 3460 -5 3460 -24 60 c-65 164 -189 283 -350 338 l-66 22
-2245 2 c-1889 1 -2254 -1 -2302 -12z"/>
<path d="M20580 7929 c-152 -30 -287 -152 -339 -307 l-21 -61 0 -3560 c0
-3509 0 -3560 20 -3622 22 -73 77 -169 123 -217 48 -50 132 -102 211 -131 l71
-26 1613 -3 1612 -3 0 296 0 295 -1532 2 -1533 3 -3 3378 -2 3377 2105 0 2105
0 0 -3493 0 -3493 21 -62 c43 -127 158 -240 288 -280 53 -16 197 -17 2331 -17
l2275 0 70 22 c177 57 305 179 367 353 l23 65 0 3560 0 3560 -24 58 c-55 138
-150 233 -288 288 l-58 24 -1642 3 -1643 2 0 -295 0 -295 1535 0 1535 0 0
-3380 0 -3380 -2102 2 -2103 3 -5 3485 c-4 2520 -8 3493 -16 3515 -65 176
-209 303 -378 334 -74 14 -4547 13 -4616 0z"/>
<path d="M10 4006 c0 -3539 0 -3636 19 -3695 53 -169 189 -281 369 -302 45 -6
1013 -8 2362 -7 l2285 3 57 22 c116 44 199 121 252 232 l31 66 3 3658 2 3657
-295 0 -295 0 0 -3525 0 -3525 -2100 0 -2100 0 0 3525 0 3525 -295 0 -295 0 0
-3634z"/>
</g>
</svg>
